<?xml version="1.0" standalone="no"?>
<!DOCTYPE svg PUBLIC "-//W3C//DTD SVG 20010904//EN"
 "http://www.w3.org/TR/2001/REC-SVG-20010904/DTD/svg10.dtd">
<svg version="1.0" xmlns="http://www.w3.org/2000/svg"
 width="16.000000pt" height="16.000000pt" viewBox="0 0 16.000000 16.000000"
 preserveAspectRatio="xMidYMid meet">
<metadata>
Created by potrace 1.11, written by Peter Selinger 2001-2013
</metadata>
<g transform="translate(0.000000,16.000000) scale(0.016000,-0.016000)"
fill="#000000" stroke="none">
<path d="M450 850 l0 -50 -50 0 -50 0 0 -250 0 -250 -50 0 -50 0 0 -50 0 -50
-50 0 -50 0 0 -100 0 -100 350 0 350 0 0 100 0 100 -50 0 -50 0 0 50 0 50 -50
0 -50 0 0 50 0 50 50 0 50 0 0 150 0 150 50 0 50 0 0 50 0 50 -50 0 -50 0 0
50 0 50 -150 0 -150 0 0 -50z"/>
</g>
</svg>
